<?xml version="1.0" standalone="no"?>
<!DOCTYPE svg PUBLIC "-//W3C//DTD SVG 20010904//EN"
 "http://www.w3.org/TR/2001/REC-SVG-20010904/DTD/svg10.dtd">
<svg version="1.0" xmlns="http://www.w3.org/2000/svg"
 width="108.000000pt" height="108.000000pt" viewBox="0 0 108.000000 108.000000"
 preserveAspectRatio="xMidYMid meet">
<metadata>
Created by potrace 1.11, written by Peter Selinger 2001-2013
</metadata>
<g transform="translate(0.000000,108.000000) scale(0.100000,-0.100000)"
fill="#000000" stroke="none">
<path d="M432 1062 c-37 -11 -30 -26 15 -34 23 -3 77 -23 120 -43 101 -46 175
-122 229 -235 51 -104 59 -104 56 -2 -4 115 -112 237 -258 291 -61 23 -129 33
-162 23z"/>
<path d="M800 996 c0 -3 16 -38 35 -78 46 -94 65 -159 65 -222 0 -43 -6 -78
-35 -196 -2 -8 -10 -29 -16 -47 -17 -43 -5 -52 27 -22 134 125 127 370 -15
522 -25 28 -61 53 -61 43z"/>
<path d="M292 954 c-58 -15 -104 -37 -141 -66 -25 -19 -71 -77 -71 -89 0 -3
39 13 88 38 48 24 105 48 127 54 70 20 175 13 256 -16 41 -14 82 -28 92 -32
41 -13 7 47 -47 82 -66 43 -203 57 -304 29z"/>
<path d="M293 845 c-127 -39 -235 -168 -261 -316 -10 -55 -6 -119 7 -119 4 0
15 27 25 61 45 164 162 292 308 339 36 11 55 26 45 36 -11 11 -86 11 -124 -1z"/>
<path d="M1030 648 c-28 -110 -43 -144 -95 -213 -49 -66 -96 -104 -182 -146
-46 -22 -83 -44 -83 -50 0 -20 121 -5 174 20 65 32 140 111 178 188 24 50 31
79 35 146 6 96 -9 125 -27 55z"/>
<path d="M188 628 c-101 -110 -99 -317 5 -465 29 -41 74 -79 83 -70 2 2 -13
42 -35 88 -42 92 -50 120 -56 199 -5 68 10 148 41 218 13 30 24 58 24 63 0 20
-25 6 -62 -33z"/>
<path d="M237 379 c-12 -45 16 -138 56 -191 79 -103 194 -161 324 -162 115 -1
125 16 23 38 -168 36 -280 121 -351 266 -18 39 -37 70 -40 70 -4 0 -9 -9 -12
-21z"/>
<path d="M926 260 c-136 -85 -265 -98 -428 -44 -26 8 -53 14 -58 12 -21 -7 23
-49 83 -80 52 -26 75 -32 137 -33 121 -2 233 39 305 114 37 38 63 81 47 81 -4
-1 -43 -23 -86 -50z"/>
</g>
</svg>
